# xmcd
#
# Track frame offsets: 
#        183
#        14523
#        27395
#        39453
#        49403
#        64015
#        77383
#        89770
#        102593
#        114840
#        124555
#        134833
#        147503
#        161355
#        173655
#        185383
#        199570
#        213080
#        227583
#        240633
#        254208
#        266673
#
# Disc length: 3730 seconds
#
# Revision: 1
# Processed by: cddbd v1.4PL0 Copyright (c) Steve Scherf et al.
# Submitted via: ExactAudioCopy v0.90b4
#
DISCID=390e9016
DTITLE=Teddy Wilson - 1938
DYEAR=1990
DGENRE=
TTITLE0=I'll Dream Tonight
TTITLE1=Jungle Love
TTITLE2=That Old Feeling
TTITLE3=My Blue Heaven
TTITLE4=Now It Can Be Told
TTITLE5=Laugh And Call It Love
TTITLE6=On The Bumpy Road To Love
TTITLE7=A-Tisket, A-Tasket
TTITLE8=Loch Lomand
TTITLE9=Tiger Rag
TTITLE10=I'll See You In My Dreams
TTITLE11=Alice Blue Gown
TTITLE12=Everybody's Laughing
TTITLE13=Here It Is Tomorrow Again
TTITLE14=Say It With A Kiss
TTITLE15=April In My Heart
TTITLE16=I'll Never Fail You
TTITLE17=They Say
TTITLE18=You're So Desirable
TTITLE19=You're Gonna See A Lot Of Me
TTITLE20=Hello, My Darling
TTITLE21=Let's Dream In The Moonlight
EXTD=
EXTT0=
EXTT1=
EXTT2=
EXTT3=
EXTT4=
EXTT5=
EXTT6=
EXTT7=
EXTT8=
EXTT9=
EXTT10=
EXTT11=
EXTT12=
EXTT13=
EXTT14=
EXTT15=
EXTT16=
EXTT17=
EXTT18=
EXTT19=
EXTT20=
EXTT21=
PLAYORDER=
